<svg width="64" height="64" viewBox="0 0 64 64" fill="none" xmlns="http://www.w3.org/2000/svg">
<rect width="64" height="64" rx="8" fill="#2AAC5E"/>
<path d="M34.8218 50.3488L59.9319 35.3838C62.2095 34.0264 62.2095 30.7281 59.9319 29.3707L34.8218 14.4057C32.4888 13.0153 29.5299 14.6963 29.5299 17.4122L29.5299 47.3422C29.5299 50.0581 32.4888 51.7392 34.8218 50.3488Z" fill="#174D2C" stroke="white"/>
<path d="M20.1916 51.6555C30.5296 51.6555 38.8832 43.0092 38.8832 32.3771C38.8832 21.745 30.5296 13.0986 20.1916 13.0986C9.85368 13.0986 1.5 21.745 1.5 32.3771C1.5 43.0092 9.85368 51.6555 20.1916 51.6555Z" fill="#2AAC5E" stroke="white"/>
<ellipse cx="20.3772" cy="19.5386" rx="3.8982" ry="4.02395" fill="#174D2C"/>
<ellipse cx="20.3772" cy="45.2154" rx="3.8982" ry="4.02395" fill="#174D2C"/>
<ellipse cx="31.5149" cy="38.7007" rx="3.8982" ry="4.02395" fill="#174D2C"/>
<ellipse cx="31.5149" cy="26.8208" rx="3.8982" ry="4.02395" fill="#174D2C"/>
<ellipse cx="9.23951" cy="38.7007" rx="3.8982" ry="4.02395" fill="#174D2C"/>
<ellipse cx="20.377" cy="32.1854" rx="2.41317" ry="2.49102" fill="#174D2C"/>
<ellipse cx="8.86842" cy="26.8208" rx="3.8982" ry="4.02395" fill="#174D2C"/>
<path d="M37.1409 32.3772C37.1409 42.0639 29.5377 49.8892 20.1918 49.8892C10.8459 49.8892 3.24268 42.0639 3.24268 32.3772C3.24268 22.6905 10.8459 14.8652 20.1918 14.8652C29.5377 14.8652 37.1409 22.6905 37.1409 32.3772Z" stroke="#174D2C"/>
</svg>
